<svg width="300" height="300" viewBox="0 0 300 300" fill="none" xmlns="http://www.w3.org/2000/svg">
  <circle cx="150" cy="150" r="150" fill="#0B0B1A"/>
  <path d="M49 143.702C49 140.786 49.1961 138.382 49.5882 136.491L119.118 86.3644C121.314 87.2314 123.902 89.4382 126.882 92.9849C129.941 96.4527 132.686 100.275 135.118 104.452C137.627 108.63 139.235 112.097 139.941 114.856L93.3529 155.997L142.294 191.7C141.196 196.272 138.804 201.119 135.118 206.242C131.51 211.365 127.98 214.951 124.529 217L56.1765 177.632C54.2157 175.425 52.5294 170.775 51.1176 163.682C49.7059 156.588 49 149.929 49 143.702Z" fill="white"/>
  <path d="M251 155.298C251 158.214 250.804 160.618 250.412 162.509L180.882 212.636C178.686 211.769 176.059 209.601 173 206.133C170.02 202.587 167.275 198.725 164.765 194.548C162.333 190.37 160.765 186.903 160.059 184.144L206.647 143.003L157.706 107.3C158.804 102.728 161.157 97.8812 164.765 92.7582C168.451 87.6353 172.02 84.0492 175.471 82L243.824 121.368C245.784 123.575 247.471 128.225 248.882 135.318C250.294 142.412 251 149.071 251 155.298Z" fill="white"/>
</svg>
