<svg width="300" height="300" viewBox="0 0 300 300" fill="none" xmlns="http://www.w3.org/2000/svg">
<rect width="300" height="300" rx="90" fill="#0D0D0F"/>
<path d="M57 144.675C57 141.996 57.181 139.788 57.543 138.051L121.731 92.0088C123.758 92.8051 126.147 94.8321 128.899 98.0898C131.723 101.275 134.257 104.786 136.501 108.623C138.818 112.46 140.303 115.645 140.954 118.179L97.9454 155.968L143.126 188.762C142.113 192.961 139.904 197.413 136.501 202.118C133.171 206.824 129.912 210.118 126.727 212L63.6251 175.84C61.815 173.813 60.2583 169.542 58.955 163.026C57.6517 156.511 57 150.394 57 144.675Z" fill="white"/>
<path d="M243.481 155.325C243.481 158.004 243.3 160.212 242.938 161.949L178.75 207.991C176.723 207.195 174.297 205.204 171.473 202.019C168.722 198.761 166.188 195.214 163.871 191.377C161.626 187.54 160.178 184.355 159.526 181.821L202.535 144.032L157.354 111.238C158.368 107.039 160.54 102.587 163.871 97.8816C167.274 93.1761 170.568 89.8822 173.754 88L236.856 124.16C238.666 126.187 240.222 130.458 241.526 136.974C242.829 143.489 243.481 149.606 243.481 155.325Z" fill="white"/>
</svg>
